- 
http://www.Speed.Cd      fast  and The Hottest Private Tracker on the net

   signup is open now

Please Seed back to make the speed Faster!!!

------------------nfo--------------------------
-speedy[size=3][color=#009999]



           Horrid Henry The Movie 2011 DVDRIP XVID AC3 V2 AR FIX - SPEEDY



IMDB: http://www.imdb.com/title/tt1684555/[/color][/size]


[size=3]
[color=#CC9933]General


Complete name                    : Horrid Henry The Movie 2011 DVDRIP XVID AC3 V2 AR FIX - SPEEDY.avi
Format                           : AVI
Format/Info                      : Audio Video Interleave
Format profile                   : OpenDML
Format settings                  : rec
File size                        : 1.36 GiB
Duration                         : 1h 29mn
Overall bit rate                 : 2 194 Kbps[/color][/size]




[size=3][color=#669900]
Video


ID                               : 0
Format                           : MPEG-4 Visual
Format profile                   : Advanced Simple@L5
Format settings, BVOP            : 2
Format settings, QPel            : No
Format settings, GMC             : No warppoints
Format settings, Matrix          : Default (H.263)
Codec ID                         : XVID
Codec ID/Hint                    : XviD
Duration                         : 1h 29mn
Bit rate                         : 1 805 Kbps
Width                            : 720 pixels
Height                           : 400 pixels
Display aspect ratio             : 16:9
Frame rate                       : 25.000 fps
Color space                      : YUV
Chroma subsampling               : 4:2:0
Bit depth                        : 8 bits
Scan type                        : Progressive
Compression mode                 : Lossy
Bits/(Pixel*Frame)               : 0.251
Stream size                      : 1.12 GiB (82%)[/color][/size]







[size=3][color=#009900]Audio

ID                               : 1
Format                           : AC-3
Format/Info                      : Audio Coding 3
Mode extension                   : CM (complete main)
Codec ID                         : 2000
Duration                         : 1h 29mn
Bit rate mode                    : Constant
Bit rate                         : 384 Kbps
Channel(s)                       : 2 channels
Channel positions                : Front: L R
Sampling rate                    : 48.0 KHz
Bit depth                        : 16 bits
Compression mode                 : Lossy
Stream size                      : 244 MiB (17%)
Alignment                        : Aligned on interleaves
Interleave, duration             : 64 ms (1.60 video frames)
Interleave, preload duration     : 192 ms[/color][/size]






[size=3][color=#0099CC]PLOT
 
 Storyline

When Henry fails yet again to hand in his homework for the umpteenth time, he has no idea that this will set off a chain of events which will see him forming an unlikely alliance with Moody Margaret, the infuriating girl next door, and his irritating little brother Perfect Peter, outwitting corrupt School Inspectors and toppling an evil Headmaster, winning a talent contest and facing his ultimate nemesis with no way out - all because he is trying to save the very school which he has always professed to hate! Written by Anonymous     [/color][/size]


[size=3][color=#CC6600]Genres: Adventure | Comedy | Family   


Director: Nick Moore

Writers: Lucinda Whiteley (screenplay), Francesca Simon (book)

Stars: Anjelica Huston, Richard E. Grant and Parminder Nagra [/color][/size]



[size=3][color=#6699FF]
SOURCE
Video : Horrid Henry The Movie 2011 DVDRIP XVID AC3 - SPEEDY
Audio : Horrid Henry The Movie 2011 DVDRIP XVID AC3 - SPEEDY


ADDED A LITTLE: brightness and contrass it up abit and little bit sharper 

And Cropped IT N  Tweak hue N SAT:)

  AR FIX   :)[/color][/size]




[size=3][color=#996600]IF YOU ENJOY THIS PLEAS REP ME ENJOY FOLKS :)[/color][/size]


[size=3][color=#FF9900]
SCREENS:





GREETS:

 TO ALL P2P GROUPS :)[/color][/size]